Coordinates
version=1
nRows=54
nColumns=12
inDegrees=yes

Units are S.I. units (second, meters, Newtons, ...)
Angles are in degrees

endheader
time	SC_y	SC_z	SC_x	AC_y	AC_z	AC_x	GH_y	GH_z	GH_yy	EL_x	PS_y
       0.0              -54.96         -2.094          54.59          41.98          7.448          6.809          156.1          22.75         -113.6          48.83           9.11
  0.007526              -54.96         -2.091          54.59          41.99          7.447          6.805          156.1          22.75         -113.6          48.84           9.11
   0.01505              -54.95         -2.088          54.58          41.99          7.446          6.801          156.1          22.75         -113.6          48.84          9.109
   0.02258              -54.95         -2.084          54.58          41.99          7.445          6.797          156.1          22.75         -113.5          48.85          9.109
    0.0301              -54.94         -2.081          54.58          41.99          7.444          6.792          156.0          22.75         -113.5          48.86          9.108
   0.03763              -54.94         -2.077          54.58          41.99          7.443          6.787          156.0          22.74         -113.5          48.87          9.107
   0.04516              -54.93         -2.073          54.57           42.0          7.442          6.782          156.0          22.74         -113.5          48.88          9.107
   0.05268              -54.93         -2.068          54.57           42.0          7.441          6.776          155.9          22.74         -113.5          48.89          9.106
   0.06021              -54.92         -2.064          54.57           42.0           7.44           6.77          155.9          22.74         -113.4           48.9          9.105
   0.06773              -54.91         -2.059          54.56          42.01          7.439          6.763          155.9          22.74         -113.4          48.91          9.104
   0.07526               -54.9         -2.053          54.56          42.01          7.437          6.756          155.8          22.74         -113.4          48.93          9.103
   0.08278              -54.89         -2.048          54.55          42.01          7.436          6.749          155.8          22.74         -113.3          48.94          9.102
   0.09031              -54.88         -2.041          54.55          42.02          7.434          6.741          155.7          22.74         -113.3          48.95          9.101
   0.09784              -54.87         -2.035          54.54          42.02          7.432          6.732          155.7          22.74         -113.3          48.97            9.1
    0.1054              -54.86         -2.027          54.54          42.02           7.43          6.722          155.6          22.74         -113.2          48.99          9.098
    0.1129              -54.85          -2.02          54.53          42.03          7.428          6.712          155.5          22.74         -113.2          49.01          9.097
    0.1204              -54.84         -2.011          54.52          42.04          7.426          6.701          155.5          22.74         -113.1          49.03          9.096
    0.1279              -54.83         -2.002          54.52          42.04          7.424          6.689          155.4          22.74         -113.1          49.05          9.094
    0.1355              -54.81         -1.991          54.51          42.05          7.421          6.675          155.3          22.74         -113.0          49.07          9.092
     0.143              -54.79          -1.98           54.5          42.05          7.418          6.661          155.2          22.74         -113.0           49.1           9.09
    0.1505              -54.78         -1.968          54.49          42.06          7.415          6.644          155.1          22.74         -112.9          49.13          9.088
     0.158              -54.76         -1.954          54.48          42.07          7.411          6.627          155.0          22.74         -112.8          49.16          9.085
    0.1656              -54.73          -1.94          54.46          42.08          7.407          6.607          154.9          22.73         -112.7           49.2          9.083
    0.1731              -54.71         -1.923          54.45          42.09          7.403          6.586          154.7          22.73         -112.7          49.24           9.08
    0.1806              -54.68         -1.905          54.44           42.1          7.398          6.562          154.6          22.73         -112.6          49.28          9.077
    0.1881              -54.65         -1.884          54.42          42.11          7.393          6.535          154.4          22.73         -112.4          49.33          9.073
    0.1957              -54.62         -1.861           54.4          42.13          7.387          6.505          154.2          22.73         -112.3          49.39          9.069
    0.2032              -54.58         -1.835          54.38          42.15           7.38          6.471          154.0          22.73         -112.2          49.45          9.064
    0.2107              -54.53         -1.806          54.36          42.16          7.372          6.433          153.8          22.72         -112.0          49.52          9.059
    0.2183              -54.48         -1.773          54.33          42.18          7.364          6.389          153.5          22.72         -111.8           49.6          9.053
    0.2258              -54.43         -1.735           54.3          42.21          7.354           6.34          153.2          22.72         -111.6          49.69          9.047
    0.2333              -54.36         -1.692          54.26          42.24          7.342          6.283          152.8          22.72         -111.4           49.8          9.039
    0.2408              -54.29         -1.642          54.22          42.27          7.329          6.217          152.4          22.71         -111.1          49.92           9.03
    0.2484               -54.2         -1.583          54.17           42.3          7.314          6.141          152.0          22.71         -110.8          50.06           9.02
    0.2559               -54.1         -1.515          54.12          42.35          7.296          6.052          151.4           22.7         -110.4          50.22          9.007
    0.2634              -53.98         -1.435          54.05           42.4          7.275          5.946          150.7           22.7         -110.0          50.42          8.993
    0.2709              -53.84         -1.339          53.98          42.46           7.25          5.821          150.0          22.69         -109.5          50.65          8.976
    0.2785              -53.67         -1.225          53.88          42.53          7.219          5.672          149.0          22.68         -108.8          50.92          8.956
     0.286              -53.46         -1.086          53.77          42.62          7.183           5.49          147.9          22.67         -108.1          51.26          8.931
    0.2935              -53.21        -0.9173          53.63          42.72          7.139          5.269          146.5          22.66         -107.1          51.67          8.901
     0.301               -52.9        -0.7085          53.46          42.85          7.084          4.995          144.8          22.64         -106.0          52.17          8.864
    0.3086              -52.51        -0.4482          53.25          43.02          7.015          4.654          142.6          22.62         -104.6           52.8          8.818
    0.3161              -52.02        -0.1203          52.98          43.22          6.929          4.225          139.9           22.6         -102.8          53.59           8.76
    0.3236               -51.4         0.2966          52.65          43.48           6.82          3.679          136.5          22.57         -100.5          54.59          8.686
    0.3311              -50.61         0.8302          52.21          43.82          6.679          2.981          132.1          22.53         -97.57          55.88          8.591
    0.3387              -49.59          1.515          51.65          44.25          6.499          2.084          126.5          22.47         -93.81          57.53          8.469
    0.3462              -48.29           2.39          50.94           44.8          6.269         0.9386          119.3          22.41         -89.02          59.64          8.314
    0.3537              -46.65          3.489          50.05          45.48           5.98        -0.5015          110.3          22.33         -82.99          62.29          8.119
    0.3612              -44.65           4.83          48.96          46.33          5.628         -2.256          99.33          22.23         -75.65          65.53          7.881
    0.3688              -42.34          6.383          47.69           47.3          5.219         -4.291          86.58          22.11         -67.14          69.27          7.605
    0.3763              -39.83          8.065          46.33          48.35          4.777         -6.493          72.77          21.98         -57.92          73.33          7.306
    0.3838              -37.33          9.747          44.96          49.41          4.335         -8.696          58.97          21.86          -48.7          77.39          7.007
    0.3913              -35.01           11.3          43.69          50.38          3.927         -10.73          46.22          21.74         -40.18          81.13          6.731
    0.3989              -33.02          12.64           42.6          51.22          3.574         -12.48          35.22          21.64         -32.84          84.37          6.493
